<?xml version="1.0" encoding="UTF-8" standalone="no"?>
<svg
   xmlns:dc="http://purl.org/dc/elements/1.1/"
   xmlns:cc="http://creativecommons.org/ns#"
   xmlns:rdf="http://www.w3.org/1999/02/22-rdf-syntax-ns#"
   xmlns:svg="http://www.w3.org/2000/svg"
   xmlns="http://www.w3.org/2000/svg"
   xmlns:sodipodi="http://sodipodi.sourceforge.net/DTD/sodipodi-0.dtd"
   xmlns:inkscape="http://www.inkscape.org/namespaces/inkscape"
   viewBox="0 0 512 512"
   version="1.1"
   id="svg4"
   sodipodi:docname="check.svg"
   inkscape:version="1.0.1 (3bc2e813f5, 2020-09-07)">
  <metadata
     id="metadata10">
    <rdf:RDF>
      <cc:Work
         rdf:about="">
        <dc:format>image/svg+xml</dc:format>
        <dc:type
           rdf:resource="http://purl.org/dc/dcmitype/StillImage" />
      </cc:Work>
    </rdf:RDF>
  </metadata>
  <defs
     id="defs8" />
  <sodipodi:namedview
     pagecolor="#ffffff"
     bordercolor="#666666"
     borderopacity="1"
     objecttolerance="10"
     gridtolerance="10"
     guidetolerance="10"
     inkscape:pageopacity="0"
     inkscape:pageshadow="2"
     inkscape:window-width="1920"
     inkscape:window-height="1017"
     id="namedview6"
     showgrid="false"
     inkscape:zoom="1.6601562"
     inkscape:cx="256"
     inkscape:cy="256"
     inkscape:window-x="-8"
     inkscape:window-y="-8"
     inkscape:window-maximized="1"
     inkscape:current-layer="svg4" />
  <path
     d="M173.898 439.404l-166.4-166.4c-9.997-9.997-9.997-26.206 0-36.204l36.203-36.204c9.997-9.998 26.207-9.998 36.204 0L192 312.69 432.095 72.596c9.997-9.997 26.207-9.997 36.204 0l36.203 36.204c9.997 9.997 9.997 26.206 0 36.204l-294.4 294.401c-9.998 9.997-26.207 9.997-36.204-.001z"
     id="path2" />
  <path
     style="fill:#28a745;stroke:none;stroke-width:0.602353"
     d="m 183.91573,445.21254 c -1.71318,-0.63536 -4.28823,-1.9758 -5.72235,-2.97877 -1.43413,-1.00296 -41.26035,-40.53751 -88.502732,-87.85455 C -7.9540212,256.58023 0.91986336,266.50658 0.90953674,255.06837 c -0.005837,-6.46534 0.057094,-6.78127 2.21970906,-11.14353 2.0589044,-4.15307 3.7969812,-6.05183 23.1905882,-25.33464 22.8235,-22.6931 23.768521,-23.43197 31.710001,-24.79228 2.938179,-0.50329 4.878997,-0.49413 7.732361,0.0365 8.62382,1.60376 5.828776,-0.91733 68.558734,61.83889 l 57.52093,57.54502 121.98025,-121.87566 C 453.24352,52.040813 438.09863,65.957647 450.27149,65.957647 c 6.32176,0 6.83915,0.09763 10.84235,2.045964 3.80487,1.851805 6.1826,4.023968 25.05559,22.889411 18.91911,18.911558 21.04063,21.233078 22.88941,25.047258 1.93772,3.99769 2.03763,4.52928 2.03763,10.84235 0,6.25134 -0.11565,6.88448 -1.98273,10.85502 -1.91605,4.07463 -7.03254,9.26626 -152.09412,154.32785 -145.52707,145.52706 -150.24016,150.17135 -154.32786,152.07522 -3.6681,1.70844 -4.96068,1.98745 -9.93882,2.14542 -4.48817,0.14242 -6.39416,-0.0676 -8.83721,-0.9736 z"
     id="path2400" />
</svg>
