<?xml version="1.0" encoding="UTF-8" standalone="no"?>
<svg
   xmlns:dc="http://purl.org/dc/elements/1.1/"
   xmlns:cc="http://creativecommons.org/ns#"
   xmlns:rdf="http://www.w3.org/1999/02/22-rdf-syntax-ns#"
   xmlns:svg="http://www.w3.org/2000/svg"
   xmlns="http://www.w3.org/2000/svg"
   xmlns:sodipodi="http://sodipodi.sourceforge.net/DTD/sodipodi-0.dtd"
   xmlns:inkscape="http://www.inkscape.org/namespaces/inkscape"
   viewBox="0 0 352 512"
   version="1.1"
   id="svg2414"
   sodipodi:docname="delete.svg"
   inkscape:version="1.0.1 (3bc2e813f5, 2020-09-07)">
  <metadata
     id="metadata2420">
    <rdf:RDF>
      <cc:Work
         rdf:about="">
        <dc:format>image/svg+xml</dc:format>
        <dc:type
           rdf:resource="http://purl.org/dc/dcmitype/StillImage" />
      </cc:Work>
    </rdf:RDF>
  </metadata>
  <defs
     id="defs2418" />
  <sodipodi:namedview
     pagecolor="#ffffff"
     bordercolor="#666666"
     borderopacity="1"
     objecttolerance="10"
     gridtolerance="10"
     guidetolerance="10"
     inkscape:pageopacity="0"
     inkscape:pageshadow="2"
     inkscape:window-width="1920"
     inkscape:window-height="1017"
     id="namedview2416"
     showgrid="false"
     inkscape:zoom="1.6601562"
     inkscape:cx="176"
     inkscape:cy="256"
     inkscape:window-x="-8"
     inkscape:window-y="-8"
     inkscape:window-maximized="1"
     inkscape:current-layer="svg2414" />
  <path
     d="M242.72 256l100.07-100.07c12.28-12.28 12.28-32.19 0-44.48l-22.24-22.24c-12.28-12.28-32.19-12.28-44.48 0L176 189.28 75.93 89.21c-12.28-12.28-32.19-12.28-44.48 0L9.21 111.45c-12.28 12.28-12.28 32.19 0 44.48L109.28 256 9.21 356.07c-12.28 12.28-12.28 32.19 0 44.48l22.24 22.24c12.28 12.28 32.2 12.28 44.48 0L176 322.72l100.07 100.07c12.28 12.28 32.2 12.28 44.48 0l22.24-22.24c12.28-12.28 12.28-32.19 0-44.48L242.72 256z"
     id="path2412" />
  <path
     style="fill:#b92d3a;stroke:none;stroke-width:0.602353"
     d="m 48.301176,431.21584 c -1.822117,-0.2917 -5.481411,-1.59814 -8.131764,-2.90319 -4.496828,-2.21426 -5.827298,-3.39166 -19.911109,-17.62038 C 6.5041733,396.79663 4.9976946,395.07086 3.2675992,391.22824 -0.64193193,382.545 -0.57547563,373.87468 3.467873,365.09923 c 2.0895346,-4.535 2.7522283,-5.22829 54.336835,-56.84511 L 110.02621,256 57.804708,203.74588 C 6.2201013,152.12906 5.5574076,151.43577 3.467873,146.90077 -0.7656799,137.71251 -0.69286499,129.10329 3.6939611,120.16941 5.9047183,115.66715 7.061813,114.35914 21.307727,100.2583 35.203371,86.504173 36.929147,84.997695 40.771765,83.267599 c 8.680477,-3.908287 17.349308,-3.842693 26.129004,0.197711 4.536929,2.087888 5.206365,2.727826 56.843431,54.33851 l 52.25244,52.22574 52.2558,-52.22317 c 51.61852,-51.586304 52.31178,-52.248981 56.84679,-54.338517 9.2906,-4.280709 17.75359,-4.168819 27.03253,0.357399 4.83848,2.360182 5.9015,3.279011 19.33273,16.710238 13.43123,13.43122 14.35006,14.49425 16.71024,19.33273 4.52622,9.27893 4.6381,17.74193 0.3574,27.03253 -2.08953,4.535 -2.75223,5.22829 -54.33684,56.84511 L 241.97379,256 l 52.2215,52.25412 c 51.58461,51.61682 52.24731,52.31011 54.33684,56.84511 4.2807,9.2906 4.16882,17.75359 -0.3574,27.03253 -2.36018,4.83848 -3.27901,5.9015 -16.71024,19.33273 -13.43123,13.43123 -14.49425,14.35006 -19.33273,16.71024 -9.27894,4.52622 -17.74193,4.6381 -27.03253,0.3574 -4.535,-2.08953 -5.22829,-2.75223 -56.84511,-54.33684 L 176,321.97379 l -52.25412,52.2215 c -51.516468,51.48432 -52.318543,52.25119 -56.818047,54.32433 -4.295415,1.97911 -10.424034,3.44048 -13.807833,3.29247 -0.828235,-0.0362 -2.996706,-0.30454 -4.818824,-0.59625 z"
     id="path4546" />
</svg>
